<svg width="20vw" height="20vh" viewBox="0 0 115 123" version="1.1" xmlns="http://www.w3.org/2000/svg" xmlns:xlink="http://www.w3.org/1999/xlink">
    <!-- Generator: Sketch 43.1 (39012) - http://www.bohemiancoding.com/sketch -->
    <desc>Created with Sketch.</desc>
    <defs></defs>
    <g id="Welcome" stroke="none" stroke-width="1" fill="none" fill-rule="evenodd">
        <g id="Desktop-HD-Copy" transform="translate(-1141.000000, -103.000000)">
            <g id="43" transform="translate(1141.000000, 103.000000)">
                <path d="M65.5985792,81.2186902 L112.313828,81.2186902 C113.32144,81.2186902 114.141155,82.3009082 114.141155,83.6302581 C114.141155,84.9605641 113.32144,86.042543 112.313828,86.042543 L102.928959,86.042543 C101.924246,86.042543 101.106162,87.1209369 101.106162,88.4471797 L101.106162,102.351099 L101.896162,102.351099 L101.896162,88.4471797 C101.896162,87.6971797 102.360558,87.0860421 102.928959,87.0860421 L112.313828,87.0860421 C113.756302,87.0860421 114.931517,85.5348948 114.931517,83.6302581 C114.931517,81.7256214 113.756302,80.1766252 112.313828,80.1766252 L65.5985792,80.1751912" id="Fill-34" fill="#FFFFFF"></path>
                <path d="M102.435778,101.42304 C105.070333,101.42304 107.207852,103.564293 107.207852,106.20196 L107.207852,117.668977 C107.207852,120.305449 105.070333,122.445268 102.435778,122.445268 L101.16682,122.445268 L101.16682,101.42304 L102.435778,101.42304" id="Fill-35" fill="#FFFFFF"></path>
                <path d="M99.8940437,101.42304 L101.16682,101.42304 L101.16682,122.445268 L99.8940437,122.445268 C97.2611585,122.445268 95.1236393,120.305449 95.1236393,117.668977 L95.1236393,106.20196 C95.1236393,103.564293 97.2611585,101.42304 99.8940437,101.42304" id="Fill-36" fill="#E6E7E3"></path>
                <path d="M102.756716,106.494264 L102.756716,107.52175 C102.756716,108.401291 102.041346,109.114245 101.16682,109.116396 L101.16682,104.902725 C102.041346,104.902725 102.756716,105.615918 102.756716,106.494264" id="Fill-37" fill="#172E41"></path>
                <path d="M101.16682,104.902725 L101.16682,109.116396 C100.286566,109.116396 99.5764463,108.401291 99.5764463,107.52175 L99.5764463,106.494264 C99.5764463,105.615918 100.286566,104.902725 101.16682,104.902725" id="Fill-38" fill="#152830"></path>
                <path d="M37.539255,66.5485182 C36.5091512,70.7674474 35.4788087,74.9858987 34.4494208,79.2055449 L63.2908962,79.2055449 C62.2600765,74.9858987 61.2297341,70.7674474 60.2005847,66.5485182 L37.539255,66.5485182" id="Fill-39" fill="#8A8B87"></path>
                <path d="M48.7012186,79.2055449 L63.2908962,79.2055449 C62.2600765,74.9858987 61.2297341,70.7674474 60.2005847,66.5485182 L48.7012186,66.5485182 L48.7012186,79.2055449" id="Fill-40" fill="#8E9391"></path>
                <path d="M65.072878,78.9820746 L32.6662459,78.9820746 C31.8437377,78.9820746 31.1765683,79.7650574 31.1765683,80.7344646 L31.1765683,81.3919694 L66.5627942,81.3919694 L66.5627942,80.7344646 C66.5627942,79.7650574 65.8944317,78.9820746 65.072878,78.9820746" id="Fill-41" fill="#FFFFFF"></path>
                <path d="M0.140067395,68.6001434 C0.140067395,69.9426386 1.22338251,71.0291587 2.56750455,71.0291587 L95.1713807,71.0291587 C96.5114463,71.0291587 97.5985792,69.9426386 97.5985792,68.6001434 L97.5985792,61.625239 L0.140067395,61.625239 L0.140067395,68.6001434 Z" id="Fill-42" fill="#FFFFFF"></path>
                <path d="M97.5985792,61.625239 L97.5985792,2.57409178 C97.5985792,1.23064054 96.5114463,0.144120459 95.1713807,0.144120459 L2.56750455,0.144120459 C1.22338251,0.144120459 0.140067395,1.23064054 0.140067395,2.57409178 L0.140067395,61.625239 L97.5985792,61.625239" id="Fill-43" fill="#152830"></path>
                <polygon id="Fill-44" fill="#698489" points="4.1325847 57.5948853 93.6067778 57.5948853 93.6067778 3.9416826 4.1325847 3.9416826"></polygon>
            </g>
        </g>
    </g>
</svg>