<svg width="16vw" height="16vh" viewBox="0 0 100 95" version="1.1" xmlns="http://www.w3.org/2000/svg" xmlns:xlink="http://www.w3.org/1999/xlink">
    <!-- Generator: Sketch 43.1 (39012) - http://www.bohemiancoding.com/sketch -->
    <desc>Created with Sketch.</desc>
    <defs></defs>
    <g id="Welcome" stroke="none" stroke-width="1" fill="none" fill-rule="evenodd">
        <g id="Desktop-HD-Copy" transform="translate(-1157.000000, -786.000000)">
            <g id="Group-2" transform="translate(1157.000000, 786.000000)">
                <polyline id="Fill-127" fill="#406A90" points="99.7055556 35.9537037 49.9518519 71.8728395 0.19691358 35.9537037 49.9518519 0.0345679012 99.7055556 35.9537037"></polyline>
                <polygon id="Fill-128" fill="#FFFEFB" points="13.7882716 94.6864198 86.1148148 94.6864198 86.1148148 6.34444444 13.7882716 6.34444444"></polygon>
                <polygon id="Fill-129" fill="#BAD7E6" points="25.0734568 22.5901235 45.7376543 22.5901235 45.7376543 18.4240741 25.0734568 18.4240741"></polygon>
                <polygon id="Fill-130" fill="#BAD7E6" points="24.8722222 30.6796296 75.0302469 30.6796296 75.0302469 26.5135802 24.8722222 26.5135802"></polygon>
                <polygon id="Fill-131" fill="#BAD7E6" points="24.8722222 38.4407407 75.0302469 38.4407407 75.0302469 34.2746914 24.8722222 34.2746914"></polygon>
                <polygon id="Fill-132" fill="#BAD7E6" points="24.8722222 46.2030864 75.0302469 46.2030864 75.0302469 42.037037 24.8722222 42.037037"></polygon>
                <polygon id="Fill-133" fill="#BAD7E6" points="24.8722222 53.9641975 75.0302469 53.9641975 75.0302469 49.7981481 24.8722222 49.7981481"></polygon>
                <polygon id="Fill-134" fill="#BAD7E6" points="24.8722222 61.7259259 75.0302469 61.7259259 75.0302469 57.5598765 24.8722222 57.5598765"></polygon>
                <polygon id="Fill-135" fill="#BAD7E6" points="24.8722222 69.487037 75.0302469 69.487037 75.0302469 65.3209877 24.8722222 65.3209877"></polygon>
                <polyline id="Fill-136" fill="#4D7CA6" points="0.19691358 94.6864198 99.7055556 94.6864198 99.7055556 35.9537037 49.9506173 71.8728395 0.19691358 35.9537037 0.19691358 94.6864198"></polyline>
                <polyline id="Fill-137" fill="#578CB9" points="0.19691358 94.6864198 99.7055556 94.6864198 59.0290123 65.3209877 40.8765432 65.3209877 40.8765432 65.3185185 0.19691358 94.6864198"></polyline>
            </g>
        </g>
    </g>
</svg>