<svg width="16vw" height="16vh" viewBox="0 0 80 86" version="1.1" xmlns="http://www.w3.org/2000/svg" xmlns:xlink="http://www.w3.org/1999/xlink">
    <!-- Generator: Sketch 43.1 (39012) - http://www.bohemiancoding.com/sketch -->
    <desc>Created with Sketch.</desc>
    <defs></defs>
    <g id="Welcome" stroke="none" stroke-width="1" fill="none" fill-rule="evenodd">
        <g id="Desktop-HD-Copy" transform="translate(-680.000000, -446.000000)">
            <g id="mufmix_-07" transform="translate(680.000000, 446.000000)">
                <path d="M39.9673469,5.56489796 C-12.8408163,5.56489796 -0.11755102,75.5616327 39.9673469,75.5616327 C80.0514286,75.5616327 92.7763265,5.56489796 39.9673469,5.56489796" id="Fill-179" fill="#6B503F"></path>
                <path d="M30.6089796,79.5012245 C30.6089796,71.4628571 49.3257143,71.4628571 49.3257143,79.5012245 C49.3257143,87.5387755 30.6089796,87.5387755 30.6089796,79.5012245 Z" id="Fill-186" fill="#E0BA9B"></path>
                <path d="M41.4775657,8.72979592 C-11.2554956,8.72979592 1.44981055,85.2693878 41.4775657,85.2693878 C81.5061371,85.2693878 94.2114432,8.72979592 41.4775657,8.72979592" id="Fill-187" fill="#FCDABE"></path>
                <path d="M3.33061224,41.4938776 C5.99428571,40.8138776 9.22938776,44.477551 10.557551,49.677551 C11.884898,54.877551 10.802449,59.6432653 8.13959184,60.3232653 C5.47591837,61.0032653 2.24081633,57.3395918 0.912653061,52.1404082 C-0.414693878,46.9412245 0.666938776,42.1738776 3.33061224,41.4938776" id="Fill-195" fill="#FCDABE"></path>
                <path d="M76.6318367,41.4938776 C73.9689796,40.8138776 70.7338776,44.477551 69.4057143,49.677551 C68.077551,54.877551 69.16,59.6432653 71.8244898,60.3232653 C74.4873469,61.0032653 77.7216327,57.3395918 79.0497959,52.1404082 C80.3779592,46.9412245 79.2955102,42.1738776 76.6318367,41.4938776" id="Fill-196" fill="#FCDABE"></path>
                <path d="M50.9077551,53.444898 C52.3061224,53.444898 53.4473469,51.3534694 53.4473469,48.7902041 C53.4473469,46.2269388 52.3061224,44.1355102 50.9077551,44.1355102 C49.5093878,44.1355102 48.3673469,46.2269388 48.3673469,48.7902041 C48.3673469,51.3534694 49.5093878,53.444898 50.9077551,53.444898" id="Fill-197" fill="#425156"></path>
                <path d="M29.0277551,53.444898 C30.4261224,53.444898 31.5673469,51.3534694 31.5673469,48.7902041 C31.5673469,46.2269388 30.4261224,44.1355102 29.0277551,44.1355102 C27.6285714,44.1355102 26.4881633,46.2269388 26.4881633,48.7902041 C26.4881633,51.3534694 27.6285714,53.444898 29.0277551,53.444898" id="Fill-198" fill="#425156"></path>
                <path d="M66.682449,24.4791837 C59.3542857,16.4293878 34.6881633,23.4383673 19.8767347,19.6212245 C8.13469388,16.595102 6.90938776,8.13795918 11.8816327,0.0595918367 C19.8277551,11.5216327 65.2636735,-4.93387755 66.682449,24.4791837" id="Fill-199" fill="#6B503F"></path>
                <path d="M53.1795918,68.6661224 C47.0253061,70.4163265 33.8138776,70.7412245 26.755102,68.6661224 L53.1795918,68.6661224" id="Fill-200" fill="#BF9470"></path>
                <path d="M45.1036735,58.7085714 C43.1330612,63.7355102 36.802449,63.6473469 34.8302041,58.7085714 C37.7167347,61.4546939 42.0604082,61.5820408 45.1036735,58.7085714" id="Fill-201" fill="#E0BA9B"></path>
                <path d="M46.1053061,71.3469388 C43.8187755,74.4530612 36.2546939,74.404898 33.8285714,71.3469388 C37.3665306,72.7877551 42.5673469,72.7934694 46.1053061,71.3469388" id="Fill-205" fill="#E0BA9B"></path>
                <path d="M11.9028571,51.4971429 C12.4816327,57.0971429 11.1191837,55.5118367 9.10938776,51.1208163 C7.09795918,46.7297959 5.63265306,42.3493878 5.98367347,38.0130612 C9.37632653,-3.85632653 71.6285714,-4.36979592 76.0816327,38.0130612 C76.5363265,42.3395918 74.9673469,46.7297959 72.9567347,51.1208163 C70.9461224,55.5118367 69.5844898,57.0963265 70.1632653,51.4971429 C70.8644898,44.6995918 69.8187755,34.915102 66.2220408,29.157551 C59.8571429,18.9673469 51.5518367,24.8808163 40.2930612,24.8808163 C29.0334694,24.8808163 23.7559184,20.2865306 16.4040816,29.6906122 C11.9477551,35.3910204 11.1534694,44.2383673 11.9028571,51.4971429" id="Fill-206" fill="#6B503F"></path>
                <path d="M32.1387755,41.797551 C30.9240816,39.6408163 27.4465306,39.1012245 25.1077551,40.0832653 C23.9346939,40.5755102 24.5689796,40.955102 25.3183673,40.715102 C27.7404082,39.9404082 29.9093878,40.9028571 31.3077551,42.595102 C32.0497959,43.4914286 32.8138776,42.9959184 32.1387755,41.797551" id="Fill-207" fill="#6B503F"></path>
                <path d="M47.8955102,42.3061224 C49.1126531,40.1502041 52.5877551,39.6097959 54.9273469,40.5926531 C56.1004082,41.0840816 55.4661224,41.4636735 54.7167347,41.2236735 C52.2946939,40.4489796 50.1265306,41.4114286 48.7281633,43.1036735 C47.9853061,44 47.2212245,43.5044898 47.8955102,42.3061224" id="Fill-208" fill="#6B503F"></path>
            </g>
        </g>
    </g>
                </svg>