<svg width="18px" height="14px" viewBox="0 0 18 14" version="1.1" xmlns="http://www.w3.org/2000/svg" xmlns:xlink="http://www.w3.org/1999/xlink">
    <desc>Hamburger Icon</desc>
    <defs></defs>
    <g id="Page-1" stroke="none" stroke-width="1" fill="none" fill-rule="evenodd">
        <g id="menu-button-of-three-horizontal-lines" fill-rule="nonzero" fill="#FFFFFF">
            <path d="M16.2580645,0 L1.74193548,0 C0.783870968,0 0,0.45 0,1 C0,1.55 0.783870968,2 1.74193548,2 L16.2580645,2 C17.216129,2 18,1.55 18,1 C18,0.45 17.216129,0 16.2580645,0 Z" id="Shape"></path>
            <path d="M16.2580645,12 L1.74193548,12 C0.783870968,12 0,12.45 0,13 C0,13.55 0.783870968,14 1.74193548,14 L16.2580645,14 C17.216129,14 18,13.55 18,13 C18,12.45 17.216129,12 16.2580645,12 Z" id="Shape"></path>
            <path d="M16.2580645,6 L1.74193548,6 C0.783870968,6 0,6.45 0,7 C0,7.55 0.783870968,8 1.74193548,8 L16.2580645,8 C17.216129,8 18,7.55 18,7 C18,6.45 17.216129,6 16.2580645,6 Z" id="Shape"></path>
        </g>
    </g>
</svg>