<svg width="200px" height="90vh" viewBox="0 0 224 977" version="1.1" xmlns="http://www.w3.org/2000/svg" xmlns:xlink="http://www.w3.org/1999/xlink">
    <!-- Generator: Sketch 43.1 (39012) - http://www.bohemiancoding.com/sketch -->
    <desc>About</desc>
    <defs></defs>
    <g id="Welcome" stroke="none" stroke-width="1" fill="none" fill-rule="evenodd" fill-opacity="0.326086957">
        <path d="M-295.484443,381.564443 L-244.284443,381.564443 L-163.324443,595.004443 L-230.524443,595.004443 L-237.564443,575.804443 L-302.204443,575.804443 L-309.244443,595.004443 L-376.444443,595.004443 L-295.484443,381.564443 Z M-255.484443,528.764443 L-269.884443,491.324443 L-284.284443,528.764443 L-255.484443,528.764443 Z M-328.764443,569.404443 L-322.684443,553.404443 L-217.084443,553.404443 L-211.004443,569.404443 L-202.044443,569.404443 L-263.804443,407.164443 L-275.964443,407.164443 L-337.724443,569.404443 L-328.764443,569.404443 Z M-269.884443,414.844443 L-219.964443,545.724443 L-319.804443,545.724443 L-269.884443,414.844443 Z M-156.302221,381.564443 L-72.7822214,381.564443 C-62.1155014,381.564443 -52.355599,382.791097 -43.5022214,385.244443 C-34.6488438,387.697788 -27.0755862,391.324419 -20.7822214,396.124443 C-14.4888566,400.924467 -9.58223897,406.89774 -6.06222137,414.044443 C-2.54220377,421.191145 -0.782221375,429.564395 -0.782221375,439.164443 C-0.782221375,445.991144 -1.63554617,451.804419 -3.34222137,456.604443 C-5.04889657,461.404467 -6.86221177,465.404427 -8.78222137,468.604443 C-11.1288998,472.444462 -13.7955398,475.64443 -16.7822214,478.204443 C-12.0888646,481.191124 -7.82224057,485.031086 -3.98222137,489.724443 C-0.782205375,493.777796 2.15109863,498.897745 4.81777863,505.084443 C7.48445863,511.27114 8.81777863,518.844398 8.81777863,527.804443 C8.81777863,538.044494 7.00446343,547.324401 3.37777863,555.644443 C-0.248906175,563.964484 -5.42218777,571.057747 -12.1422214,576.924443 C-18.862255,582.791139 -27.0755062,587.271094 -36.7822214,590.364443 C-46.4889366,593.457792 -57.315495,595.004443 -69.2622214,595.004443 L-156.302221,595.004443 L-156.302221,381.564443 Z M-82.7022214,544.764443 C-66.488807,544.764443 -58.3822214,538.577838 -58.3822214,526.204443 C-58.3822214,513.831048 -66.488807,507.644443 -82.7022214,507.644443 L-90.3822214,507.644443 L-90.3822214,544.764443 L-82.7022214,544.764443 Z M-66.7022214,446.524443 C-66.7022214,436.71106 -72.0355014,431.804443 -82.7022214,431.804443 L-90.3822214,431.804443 L-90.3822214,461.244443 L-82.7022214,461.244443 C-72.0355014,461.244443 -66.7022214,456.337825 -66.7022214,446.524443 Z M-78.2222214,569.404443 C-59.4487942,569.404443 -45.5822662,565.35115 -36.6222214,557.244443 C-27.6621766,549.137736 -23.1822214,538.36451 -23.1822214,524.924443 C-23.1822214,516.177732 -25.0488694,509.191136 -28.7822214,503.964443 C-32.5155734,498.73775 -36.5155334,494.631124 -40.7822214,491.644443 C-46.1155814,488.231092 -51.9821894,485.884449 -58.3822214,484.604443 C-53.2621958,483.111102 -48.675575,480.764459 -44.6222214,477.564443 C-40.9955366,474.791096 -37.7422358,471.004467 -34.8622214,466.204443 C-31.982207,461.404419 -30.5422214,455.271147 -30.5422214,447.804443 C-30.5422214,434.364376 -34.8088454,424.231144 -43.3422214,417.404443 C-51.8755974,410.577742 -63.5021478,407.164443 -78.2222214,407.164443 L-124.302221,407.164443 L-124.302221,569.404443 L-78.2222214,569.404443 Z M-115.982221,561.724443 L-115.982221,488.444443 L-78.5422214,488.444443 C-71.928855,488.444443 -65.795583,489.137769 -60.1422214,490.524443 C-54.4888598,491.911116 -49.5289094,494.044428 -45.2622214,496.924443 C-40.9955334,499.804457 -37.635567,503.591086 -35.1822214,508.284443 C-32.7288758,512.9778 -31.5022214,518.524411 -31.5022214,524.924443 C-31.5022214,537.937841 -35.8221782,547.324414 -44.4622214,553.084443 C-53.1022646,558.844472 -64.462151,561.724443 -78.5422214,561.724443 L-115.982221,561.724443 Z M-115.982221,480.764443 L-115.982221,414.844443 L-78.2222214,414.844443 C-64.3554854,414.844443 -54.3822518,417.884412 -48.3022214,423.964443 C-42.222191,430.044473 -39.1822214,437.99106 -39.1822214,447.804443 C-39.1822214,457.617825 -42.222191,465.564412 -48.3022214,471.644443 C-54.3822518,477.724473 -64.3554854,480.764443 -78.2222214,480.764443 L-115.982221,480.764443 Z M19.04,488.444443 C19.04,473.084366 21.973304,458.577844 27.84,444.924443 C33.706696,431.271041 41.706616,419.377827 51.84,409.244443 C61.973384,399.111059 73.8665984,391.111139 87.52,385.244443 C101.173402,379.377747 115.679923,376.444443 131.04,376.444443 C146.400077,376.444443 160.906598,379.377747 174.56,385.244443 C188.213402,391.111139 200.106616,399.111059 210.24,409.244443 C220.373384,419.377827 228.373304,431.271041 234.24,444.924443 C240.106696,458.577844 243.04,473.084366 243.04,488.444443 C243.04,503.80452 240.106696,518.311041 234.24,531.964443 C228.373304,545.617844 220.373384,557.511059 210.24,567.644443 C200.106616,577.777827 188.213402,585.777747 174.56,591.644443 C160.906598,597.511139 146.400077,600.444443 131.04,600.444443 C115.679923,600.444443 101.173402,597.511139 87.52,591.644443 C73.8665984,585.777747 61.973384,577.777827 51.84,567.644443 C41.706616,557.511059 33.706696,545.617844 27.84,531.964443 C21.973304,518.311041 19.04,503.80452 19.04,488.444443 Z M49.12,488.444443 C49.12,499.751166 51.253312,510.364393 55.52,520.284443 C59.786688,530.204492 65.653296,538.897739 73.12,546.364443 C80.586704,553.831147 89.2799504,559.697755 99.2,563.964443 C109.12005,568.231131 119.733277,570.364443 131.04,570.364443 C142.346723,570.364443 152.95995,568.231131 162.88,563.964443 C172.80005,559.697755 181.493296,553.831147 188.96,546.364443 C196.426704,538.897739 202.293312,530.204492 206.56,520.284443 C210.826688,510.364393 212.96,499.751166 212.96,488.444443 C212.96,477.13772 210.826688,466.524492 206.56,456.604443 C202.293312,446.684393 196.426704,437.991147 188.96,430.524443 C181.493296,423.057739 172.80005,417.191131 162.88,412.924443 C152.95995,408.657755 142.346723,406.524443 131.04,406.524443 C119.733277,406.524443 109.12005,408.657755 99.2,412.924443 C89.2799504,417.191131 80.586704,423.057739 73.12,430.524443 C65.653296,437.991147 59.786688,446.684393 55.52,456.604443 C51.253312,466.524492 49.12,477.13772 49.12,488.444443 Z M86.24,488.444443 C86.24,494.63114 87.4133216,500.444416 89.76,505.884443 C92.1066784,511.32447 95.3066464,516.071089 99.36,520.124443 C103.413354,524.177796 108.159973,527.377764 113.6,529.724443 C119.040027,532.071121 124.853302,533.244443 131.04,533.244443 C137.226698,533.244443 143.039973,532.071121 148.48,529.724443 C153.920027,527.377764 158.666646,524.177796 162.72,520.124443 C166.773354,516.071089 169.973322,511.32447 172.32,505.884443 C174.666678,500.444416 175.84,494.63114 175.84,488.444443 C175.84,482.257745 174.666678,476.44447 172.32,471.004443 C169.973322,465.564416 166.773354,460.817796 162.72,456.764443 C158.666646,452.711089 153.920027,449.511121 148.48,447.164443 C143.039973,444.817764 137.226698,443.644443 131.04,443.644443 C124.853302,443.644443 119.040027,444.817764 113.6,447.164443 C108.159973,449.511121 103.413354,452.711089 99.36,456.764443 C95.3066464,460.817796 92.1066784,465.564416 89.76,471.004443 C87.4133216,476.44447 86.24,482.257745 86.24,488.444443 Z M131.04,562.044443 C120.799949,562.044443 111.253378,560.124462 102.4,556.284443 C93.5466224,552.444424 85.7600336,547.164476 79.04,540.444443 C72.3199664,533.724409 67.0400192,525.93782 63.2,517.084443 C59.3599808,508.231065 57.44,498.684494 57.44,488.444443 C57.44,478.204392 59.3599808,468.65782 63.2,459.804443 C67.0400192,450.951065 72.3199664,443.164476 79.04,436.444443 C85.7600336,429.724409 93.5466224,424.444462 102.4,420.604443 C111.253378,416.764424 120.799949,414.844443 131.04,414.844443 C141.280051,414.844443 150.826622,416.764424 159.68,420.604443 C168.533378,424.444462 176.319966,429.724409 183.04,436.444443 C189.760034,443.164476 195.039981,450.951065 198.88,459.804443 C202.720019,468.65782 204.64,478.204392 204.64,488.444443 C204.64,498.684494 202.720019,508.231065 198.88,517.084443 C195.039981,525.93782 189.760034,533.724409 183.04,540.444443 C176.319966,547.164476 168.533378,552.444424 159.68,556.284443 C150.826622,560.124462 141.280051,562.044443 131.04,562.044443 Z M350.222221,600.444443 C336.782154,600.444443 324.622276,598.737793 313.742221,595.324443 C302.862167,591.911092 293.58226,586.791144 285.902221,579.964443 C278.222183,573.137742 272.302242,564.497828 268.142221,554.044443 C263.982201,543.591057 261.902221,531.324513 261.902221,517.244443 L261.902221,381.564443 L330.062221,381.564443 L330.062221,514.364443 C330.062221,521.831147 331.608873,527.537756 334.702221,531.484443 C337.79557,535.431129 342.968852,537.404443 350.222221,537.404443 C357.475591,537.404443 362.648873,535.431129 365.742221,531.484443 C368.83557,527.537756 370.382221,521.831147 370.382221,514.364443 L370.382221,381.564443 L438.862221,381.564443 L438.862221,517.244443 C438.862221,531.324513 436.782242,543.591057 432.622221,554.044443 C428.462201,564.497828 422.488927,573.137742 414.702221,579.964443 C406.915516,586.791144 397.582276,591.911092 386.702221,595.324443 C375.822167,598.737793 363.662289,600.444443 350.222221,600.444443 Z M350.222221,562.044443 C318.222061,562.044443 302.222221,546.3646 302.222221,515.004443 L302.222221,407.164443 L293.902221,407.164443 L293.902221,515.004443 C293.902221,532.924532 298.755506,546.631062 308.462221,556.124443 C318.168937,565.617824 332.088797,570.364443 350.222221,570.364443 C368.355645,570.364443 382.328839,565.617824 392.142221,556.124443 C401.955604,546.631062 406.862221,532.924532 406.862221,515.004443 L406.862221,407.164443 L398.222221,407.164443 L398.222221,515.004443 C398.222221,546.3646 382.222381,562.044443 350.222221,562.044443 Z M490.684443,437.564443 L451.324443,437.564443 L451.324443,381.564443 L600.444443,381.564443 L600.444443,437.564443 L561.084443,437.564443 L561.084443,595.004443 L490.684443,595.004443 L490.684443,437.564443 Z M530.044443,569.404443 L530.044443,414.844443 L575.804443,414.844443 L575.804443,407.164443 L475.964443,407.164443 L475.964443,414.844443 L521.724443,414.844443 L521.724443,569.404443 L530.044443,569.404443 Z" id="ABOUT" fill="#000000" transform="translate(112.000000, 488.444443) rotate(90.000000) translate(-112.000000, -488.444443) "></path>
    </g>
</svg>