
<svg width="205px" height="1074px" viewBox="0 0 205 1074" version="1.1" xmlns="http://www.w3.org/2000/svg" xmlns:xlink="http://www.w3.org/1999/xlink">
    <!-- Generator: Sketch 43.1 (39012) - http://www.bohemiancoding.com/sketch -->
    <desc>Created with Sketch.</desc>
    <defs></defs>
    <g id="Page-1" stroke="none" stroke-width="1" fill="none" fill-rule="evenodd">
        <path d="M-347.656,434.568 C-326.343893,434.568 -308.968067,442.727918 -295.528,459.048 L-295.816,455.88 L-295.816,452.712 C-296.008001,451.559994 -296.104,450.888001 -296.104,450.696 C-296.488002,446.471979 -296.68,444.551998 -296.68,444.936 C-296.68,438.407967 -293.608031,435.144 -287.464,435.144 C-280.935967,435.144 -277.672,439.17596 -277.672,447.24 C-277.672,448.776008 -278.055996,453.383962 -278.824,461.064 C-279.784005,470.664048 -280.264,477.287982 -280.264,480.936 C-280.264,486.120026 -279.976003,491.399973 -279.4,496.776 L-278.248,507.72 L-278.248,510.6 C-278.248,519.240043 -281.703965,523.56 -288.616,523.56 C-296.104037,523.56 -299.752001,519.432041 -299.56,511.176 L-299.272,500.808 C-298.887998,486.983931 -303.207955,475.752043 -312.232,467.112 C-321.256045,458.471957 -333.063927,454.152 -347.656,454.152 C-366.664095,454.152 -381.543946,461.447927 -392.296,476.04 C-403.048054,490.632073 -408.424,510.791871 -408.424,536.52 C-408.424,562.824132 -402.904055,583.319927 -391.864,598.008 C-380.823945,612.696073 -365.416099,620.04 -345.64,620.04 C-334.887946,620.04 -325.240043,617.448026 -316.696,612.264 C-308.151957,607.079974 -302.152017,600.264042 -298.696,591.816 C-296.391988,586.247972 -295.24,578.760047 -295.24,569.352 C-295.24,560.519956 -291.592036,556.104 -284.296,556.104 C-276.423961,556.104 -272.488,560.519956 -272.488,569.352 C-272.488,589.896103 -279.591929,606.695935 -293.8,619.752 C-308.008071,632.808065 -326.343888,639.336 -348.808,639.336 C-374.72813,639.336 -395.415923,630.216091 -410.872,611.976 C-426.328077,593.735909 -434.056,569.448152 -434.056,539.112 C-434.056,507.815844 -426.136079,482.568096 -410.296,463.368 C-394.455921,444.167904 -373.57613,434.568 -347.656,434.568 Z M-180.072002,637.896 C-200.232103,637.896 -216.359942,630.93607 -228.456002,617.016 C-240.552063,603.09593 -246.600002,584.424117 -246.600002,561 C-246.600002,537.575883 -240.504063,518.90407 -228.312002,504.984 C-216.119941,491.06393 -199.752105,484.104 -179.208002,484.104 C-158.279898,484.104 -141.768063,490.919932 -129.672002,504.552 C-117.575942,518.184068 -111.528002,536.711883 -111.528002,560.136 C-111.528002,583.560117 -117.76794,602.375929 -130.248002,616.584 C-142.728065,630.792071 -159.335899,637.896 -180.072002,637.896 Z M-178.632002,503.112 C-192.07207,503.112 -202.631964,507.815953 -210.312002,517.224 C-217.992041,526.632047 -222.215999,539.975914 -222.984002,557.256 L-222.984002,561 C-222.984002,579.04809 -219.19204,593.207949 -211.608002,603.48 C-204.023964,613.752051 -193.416071,618.888 -179.784002,618.888 C-165.767932,618.888 -154.776042,613.752051 -146.808002,603.48 C-138.839963,593.207949 -134.856002,578.952091 -134.856002,560.712 C-134.856002,522.311808 -149.447856,503.112 -178.632002,503.112 Z M-41.0000048,497.928 L-41.0000048,505.992 C-29.4799472,491.399927 -14.1201008,484.104 5.07999523,484.104 C15.4480471,484.104 25.2399492,486.743974 34.4559952,492.024 C43.6720413,497.304026 49.9119789,503.879961 53.1759952,511.752 C55.8640087,518.280033 57.2079952,526.823947 57.2079952,537.384 L57.2079952,592.104 C57.2079952,600.360041 57.3039943,605.255992 57.4959952,606.792 C58.456,613.320033 61.0479741,616.584 65.2719952,616.584 C67.0000039,616.584 69.2559813,616.344002 72.0399952,615.864 C74.8240092,615.383998 76.7919895,615.144 77.9439952,615.144 C80.4400077,615.144 82.5999861,616.007991 84.4239952,617.736 C86.2480044,619.464009 87.1599952,621.575988 87.1599952,624.072 C87.1599952,626.952014 86.0080068,629.35199 83.7039952,631.272 C81.3999837,633.19201 78.6160116,634.152 75.3519952,634.152 C72.6639818,634.152 68.248026,633.768004 62.1039952,633 C55.9599645,632.231996 50.2000221,631.848 44.8239952,631.848 C39.8319703,631.848 35.7040116,632.039998 32.4399952,632.424 C22.8399472,633.576006 17.7519981,634.152 17.1759952,634.152 C9.49595683,634.152 5.65599523,630.792034 5.65599523,624.072 C5.65599523,618.11997 8.91996259,615.144 15.4479952,615.144 C16.9840029,615.144 18.7119856,615.335998 20.6319952,615.72 C24.2800135,616.488004 26.5839904,616.872 27.5439952,616.872 C32.1520183,616.872 34.6479933,611.592053 35.0319952,601.032 L35.6079952,586.344 L35.8959952,568.776 L35.8959952,546.888 C35.8959952,536.711949 35.416,529.704019 34.4559952,525.864 C32.7279866,518.567964 28.984024,512.90402 23.2239952,508.872 C16.8879636,504.455978 9.68803555,502.248 1.62399523,502.248 C-13.7360816,502.248 -24.7759712,507.719945 -31.4960048,518.664 C-36.1040278,526.152037 -38.4080048,538.91991 -38.4080048,556.968 L-38.4080048,595.272 C-38.4080048,603.720042 -37.8320105,609.479985 -36.6800048,612.552 C-35.527999,615.624015 -33.4160201,617.16 -30.3440048,617.16 C-28.8079971,617.16 -26.6960182,616.776004 -24.0080048,616.008 C-21.3199913,615.239996 -19.1120134,614.856 -17.3840048,614.856 C-11.431975,614.856 -8.45600477,618.119967 -8.45600477,624.648 C-8.45600477,630.984032 -12.2959664,634.152 -19.9760048,634.152 C-21.5120124,634.152 -26.5039625,633.576006 -34.9520048,632.424 C-39.1760259,631.847997 -43.8799788,631.56 -49.0640048,631.56 C-53.0960249,631.56 -58.4719712,631.943996 -65.1920048,632.712 C-73.640047,633.672005 -78.439999,634.152 -79.5920048,634.152 C-87.6560451,634.152 -91.6880048,630.888033 -91.6880048,624.36 C-91.6880048,618.215969 -88.6160355,615.144 -82.4720048,615.144 C-81.512,615.144 -79.7360177,615.431997 -77.1440048,616.008 C-74.5519918,616.584003 -72.0080172,616.872 -69.5120048,616.872 C-63.751976,616.872 -60.7760057,611.304056 -60.5840048,600.168 L-60.0080048,568.2 L-60.0080048,533.352 L-60.5840048,523.272 C-60.9680067,516.743967 -61.7839985,512.280012 -63.0320048,509.88 C-64.280011,507.479988 -66.4399894,506.28 -69.5120048,506.28 C-70.8560115,506.28 -72.8239918,506.519998 -75.4160048,507 C-78.0080177,507.480002 -79.975998,507.72 -81.3200048,507.72 C-88.2320393,507.72 -91.6880048,504.648031 -91.6880048,498.504 C-91.6880048,492.167968 -87.368048,489 -78.7280048,489 C-77.575999,489 -76.6160086,489.095999 -75.8480048,489.288 L-65.1920048,490.44 C-62.1199894,490.44 -59.4320163,490.248002 -57.1280048,489.864 C-52.1359798,489.479998 -49.5440057,489.288 -49.3520048,489.288 C-43.7839769,489.288 -41.0000048,492.167971 -41.0000048,497.928 Z M181.591993,593.256 L182.167993,574.824 C182.359994,566.951961 185.815959,563.016 192.535993,563.016 C199.256026,563.016 202.615993,567.431956 202.615993,576.264 C202.615993,597.192105 199.92802,611.783959 194.551993,620.04 C187.255956,631.176056 175.256076,636.744 158.551993,636.744 C143.191916,636.744 132.248025,631.848049 125.719993,622.056 C120.919969,614.951964 118.519993,602.856085 118.519993,585.768 L118.519993,516.648 C118.519993,512.61598 116.696011,510.6 113.047993,510.6 L103.831993,510.6 C100.759977,510.6 98.2160029,509.59201 96.1999928,507.576 C94.1839828,505.55999 93.1759928,503.112014 93.1759928,500.232 C93.1759928,497.543987 94.1839828,495.144011 96.1999928,493.032 C98.2160029,490.919989 100.47198,489.864 102.967993,489.864 L114.199993,489.864 C117.464009,489.864 119.095993,488.040018 119.095993,484.392 L119.095993,454.728 C119.095993,447.431964 122.839955,443.784 130.327993,443.784 C137.240027,443.784 140.695993,447.431964 140.695993,454.728 L140.695993,485.544 C140.695993,488.424014 142.423976,489.864 145.879993,489.864 L177.271993,489.864 C184.568029,489.864 188.215993,493.223966 188.215993,499.944 C188.215993,507.048036 184.280032,510.6 176.407993,510.6 L144.727993,510.6 C142.039979,510.6 140.695993,512.61598 140.695993,516.648 L140.695993,587.496 C140.695993,607.656101 147.319927,617.736 160.567993,617.736 C174.00806,617.736 181.01599,609.576082 181.591993,593.256 Z M345.43199,636.744 C329.687912,636.744 319.992009,629.928068 316.34399,616.296 C306.551942,630.696072 291.192095,637.896 270.26399,637.896 C254.711913,637.896 242.280037,634.056038 232.96799,626.376 C223.655944,618.695962 218.99999,608.424064 218.99999,595.56 C218.99999,579.62392 225.815922,567.912037 239.44799,560.424 C244.632016,557.543986 249.095972,555.672004 252.83999,554.808 C256.584009,553.943996 264.119934,552.840007 275.44799,551.496 C291.576071,549.767991 302.087966,547.368015 306.98399,544.296 C311.880015,541.223985 314.32799,535.560041 314.32799,527.304 C314.32799,519.431961 311.592018,513.240023 306.11999,508.728 C300.647963,504.215977 293.016039,501.96 283.22399,501.96 C274.583947,501.96 266.520028,504.359976 259.03199,509.16 C256.151976,511.08001 254.71199,513.095989 254.71199,515.208 C254.71199,515.976004 255.575982,516.935994 257.30399,518.088 C259.992004,520.00801 261.33599,523.271977 261.33599,527.88 C261.33599,531.720019 259.944004,534.887988 257.15999,537.384 C254.375977,539.880012 250.872012,541.128 246.64799,541.128 C241.655966,541.128 237.480007,539.400017 234.11999,535.944 C230.759974,532.487983 229.07999,528.264025 229.07999,523.272 C229.07999,512.519946 234.407937,503.304038 245.06399,495.624 C255.720044,487.943962 268.631915,484.104 283.79999,484.104 C318.744165,484.104 336.21599,500.903832 336.21599,534.504 L336.21599,592.68 C336.21599,601.896046 336.407989,607.367991 336.79199,609.096 C337.943996,615.816034 341.207964,619.176 346.58399,619.176 C353.304024,619.176 356.66399,613.032061 356.66399,600.744 L356.66399,586.632 C356.66399,580.487969 359.639961,577.416 365.59199,577.416 C371.928022,577.416 375.09599,582.023954 375.09599,591.24 L375.09599,592.68 L374.80799,609.096 C374.423989,627.528092 364.632086,636.744 345.43199,636.744 Z M313.46399,579.432 L313.75199,558.984 C309.527969,562.824019 305.064014,565.511992 300.35999,567.048 C295.655967,568.584008 287.256051,569.927994 275.15999,571.08 C253.271881,573.192011 242.32799,581.25593 242.32799,595.272 C242.32799,602.568036 244.967964,608.327979 250.24799,612.552 C255.528017,616.776021 262.679945,618.888 271.70399,618.888 C284.568055,618.888 294.695954,615.384035 302.08799,608.376 C309.480027,601.367965 313.27199,591.720061 313.46399,579.432 Z M471.831988,537.96 C471.831988,530.279962 476.63194,525.864006 486.231988,524.712 C485.271983,517.991966 482.056015,512.712019 476.583988,508.872 C471.111961,505.031981 464.056031,503.112 455.415988,503.112 C442.167922,503.112 431.512028,508.391947 423.447988,518.952 C415.383948,529.512053 411.351988,543.527913 411.351988,561 C411.351988,579.04809 415.14395,593.207949 422.727988,603.48 C430.312026,613.752051 440.823921,618.888 454.263988,618.888 C462.71203,618.888 470.055957,616.488024 476.295988,611.688 C482.536019,606.887976 486.807977,600.264042 489.111988,591.816 C491.031998,585.095966 492.183986,581.256005 492.567988,580.296 C494.679999,576.455981 497.751968,574.536 501.783988,574.536 C505.048004,574.536 507.735978,575.591989 509.847988,577.704 C511.959999,579.816011 513.015988,582.503984 513.015988,585.768 C513.015988,590.568024 511.480003,596.327966 508.407988,603.048 C505.335973,609.768034 501.688009,615.335978 497.463988,619.752 C486.135931,631.84806 471.448078,637.896 453.399988,637.896 C433.81589,637.896 418.024048,630.984069 406.023988,617.16 C394.023928,603.335931 388.023988,585.192112 388.023988,562.728 C388.023988,538.919881 394.215926,519.864072 406.599988,505.56 C418.98405,491.255928 435.447885,484.104 455.991988,484.104 C471.352065,484.104 484.119937,488.279958 494.295988,496.632 C504.472039,504.984042 509.559988,515.591936 509.559988,528.456 C509.559988,535.560036 507.592008,541.415977 503.655988,546.024 C499.719968,550.632023 494.680019,552.936 488.535988,552.936 C483.735964,552.936 479.752004,551.496014 476.583988,548.616 C473.415972,545.735986 471.831988,542.184021 471.831988,537.96 Z M618.103986,593.256 L618.679986,574.824 C618.871987,566.951961 622.327952,563.016 629.047986,563.016 C635.768019,563.016 639.127986,567.431956 639.127986,576.264 C639.127986,597.192105 636.440013,611.783959 631.063986,620.04 C623.767949,631.176056 611.768069,636.744 595.063986,636.744 C579.703909,636.744 568.760018,631.848049 562.231986,622.056 C557.431962,614.951964 555.031986,602.856085 555.031986,585.768 L555.031986,516.648 C555.031986,512.61598 553.208004,510.6 549.559986,510.6 L540.343986,510.6 C537.27197,510.6 534.727996,509.59201 532.711986,507.576 C530.695976,505.55999 529.687986,503.112014 529.687986,500.232 C529.687986,497.543987 530.695976,495.144011 532.711986,493.032 C534.727996,490.919989 536.983973,489.864 539.479986,489.864 L550.711986,489.864 C553.976002,489.864 555.607986,488.040018 555.607986,484.392 L555.607986,454.728 C555.607986,447.431964 559.351948,443.784 566.839986,443.784 C573.75202,443.784 577.207986,447.431964 577.207986,454.728 L577.207986,485.544 C577.207986,488.424014 578.935968,489.864 582.391986,489.864 L613.783986,489.864 C621.080022,489.864 624.727986,493.223966 624.727986,499.944 C624.727986,507.048036 620.792025,510.6 612.919986,510.6 L581.239986,510.6 C578.551972,510.6 577.207986,512.61598 577.207986,516.648 L577.207986,587.496 C577.207986,607.656101 583.831919,617.736 597.079986,617.736 C610.520053,617.736 617.527983,609.576082 618.103986,593.256 Z" id="Contact" fill="#000000" transform="translate(102.535993, 536.952000) rotate(90.000000) translate(-102.535993, -536.952000) "></path>
    </g>
</svg>