<svg width="25vw" height="10vh" viewBox="0 0 212 85" version="1.1" xmlns="http://www.w3.org/2000/svg" xmlns:xlink="http://www.w3.org/1999/xlink">
    <!-- Generator: Sketch 43.1 (39012) - http://www.bohemiancoding.com/sketch -->
    <desc>Created with Sketch.</desc>
    <defs></defs>
    <g id="Welcome" stroke="none" stroke-width="1" fill="none" fill-rule="evenodd">
        <g id="Desktop-HD-Copy" transform="translate(-135.000000, -130.000000)" fill="#FFFFFF">
            <path d="M180.606204,146.945946 C179.01396,144.747132 176.853089,142.946407 174.123527,141.543715 C171.393965,140.141023 168.323254,139.439688 164.911301,139.439688 C163.091593,139.439688 161.252957,139.686103 159.395339,140.178941 C157.53772,140.671778 155.850724,141.467889 154.334301,142.567296 C152.817878,143.666703 151.585802,145.031463 150.638038,146.661618 C149.690273,148.291773 149.216398,150.244139 149.216398,152.518774 C149.216398,154.717588 149.652363,156.556224 150.524306,158.034737 C151.39625,159.513249 152.57146,160.76428 154.049973,161.787866 C155.528486,162.811451 157.272347,163.683382 159.281608,164.403683 C161.290868,165.123984 163.432784,165.863229 165.707419,166.621441 C168.436981,167.455474 171.204412,168.403224 174.009796,169.46472 C176.815179,170.526217 179.35515,171.928887 181.629785,173.672774 C183.90442,175.416661 185.762011,177.596487 187.202613,180.212317 C188.643215,182.828147 189.363505,186.145274 189.363505,190.163796 C189.363505,194.33396 188.58635,197.954366 187.032016,201.025124 C185.477682,204.095881 183.411586,206.635852 180.833667,208.645113 C178.255747,210.654374 175.279811,212.151819 171.905769,213.137495 C168.531727,214.12317 165.06296,214.616 161.499366,214.616 C156.419347,214.616 151.51,213.63034 146.771177,211.658989 C142.032354,209.687639 138.108668,206.768568 135,202.901688 L143.757301,195.509161 C145.65283,198.314544 148.192801,200.589145 151.37729,202.333032 C154.561779,204.076919 158.011591,204.948849 161.726828,204.948849 C163.622357,204.948849 165.517858,204.683479 167.413387,204.152731 C169.308916,203.621983 171.033822,202.787963 172.588156,201.650645 C174.14249,200.513328 175.412475,199.091702 176.398151,197.385726 C177.383826,195.67975 177.876656,193.613654 177.876656,191.187376 C177.876656,188.761099 177.364871,186.732913 176.341285,185.102758 C175.317699,183.472603 173.933984,182.088887 172.190097,180.95157 C170.44621,179.814252 168.418024,178.847547 166.105478,178.051425 C163.792933,177.255302 161.347737,176.440237 158.769817,175.606204 C156.191898,174.847993 153.651926,173.919197 151.149828,172.81979 C148.647729,171.720383 146.411039,170.317713 144.439688,168.611737 C142.468338,166.90576 140.876117,164.801754 139.662978,162.299656 C138.44984,159.797557 137.84328,156.688936 137.84328,152.973699 C137.84328,148.955177 138.658345,145.505366 140.2885,142.624161 C141.918655,139.742957 144.041616,137.354626 146.657446,135.459097 C149.273277,133.563568 152.230258,132.179852 155.528478,131.307909 C158.826699,130.435965 162.143826,130 165.479957,130 C170.180869,130 174.578431,130.83402 178.672774,132.502086 C182.767117,134.170152 186.065289,136.406843 188.567387,139.212226 L180.606204,146.945946 Z M309.463634,198.011247 L309.804828,198.011247 L334.02957,132.047161 L346.198806,132.047161 L314.581538,212.568839 L304.118269,212.568839 L272.728462,132.047161 L285.238892,132.047161 L309.463634,198.011247 Z M237.463634,146.604753 L237.122441,146.604753 L212.897699,212.568839 L200.728462,212.568839 L232.345731,132.047161 L242.809,132.047161 L274.198806,212.568839 L261.688376,212.568839 L237.463634,146.604753 Z" id="SAV-Copy"></path>
        </g>
    </g>
</svg>