
<svg width="811px" height="811px" viewBox="0 0 811 811" version="1.1" xmlns="http://www.w3.org/2000/svg" xmlns:xlink="http://www.w3.org/1999/xlink">
    <!-- Generator: Sketch 43.1 (39012) - http://www.bohemiancoding.com/sketch -->
    <desc>Created with Sketch.</desc>
    <defs></defs>
    <g id="Page-1" stroke="none" stroke-width="1" fill="none" fill-rule="evenodd">
        <g id="lua" fill-rule="nonzero">
            <circle id="Oval" fill="#000080" cx="353.5" cy="457.5" r="353.21"></circle>
            <circle id="Oval" fill="#FFFFFF" cx="499.81" cy="311.2" r="103.45"></circle>
            <circle id="Oval" fill="#000080" cx="706.72" cy="104.29" r="103.46"></circle>
            <g id="Group" transform="translate(113.000000, 402.000000)" fill="#FFFFFF">
                <polyline id="Shape" points="144.82 232.11 144.82 206.043 30.38 206.043 30.38 0.363 0.816 0.363 0.816 232.113 144.826 232.113"></polyline>
                <path d="M303.7,232.11 L303.7,65.53 L277.315,65.53 L277.315,157.402 C277.315,191.417 259.513,213.669 231.856,213.669 C210.875,213.669 197.523,200.953 197.523,180.926 L197.523,65.526 L171.138,65.526 L171.138,191.416 C171.138,219.073 191.801,236.875 224.227,236.875 C248.705,236.875 264.282,228.2918 279.859,206.357 L279.859,232.107 L303.701,232.107" id="Shape"></path>
                <path d="M497.5,231.47 L497.5,211.443 C494.639,212.07879 493.3674,212.07879 491.7779,212.07879 C482.5589,212.07879 477.4729,207.31039 477.4729,199.04479 L477.4729,106.21979 C477.4729,76.65579 455.8559,60.76079 414.8479,60.76079 C374.4749,60.76079 349.6789,76.33779 348.0899,114.80279 L374.7929,114.80279 C377.0182,94.45779 389.0979,85.23879 413.8939,85.23879 C437.7359,85.23879 451.0879,94.13989 451.0879,110.03479 L451.0879,117.02849 C451.0879,128.15449 444.4121,132.92349 423.4309,135.46649 C385.9189,140.23489 380.1969,141.50649 370.0249,145.63949 C350.6329,153.58689 340.7789,168.52749 340.7789,188.87349 C340.7789,219.07349 361.7599,236.87549 395.4569,236.87549 C416.7559,236.87549 437.4189,227.97439 452.0419,212.39749 C454.9029,225.11349 466.3469,234.33249 479.3809,234.33249 C484.7851,234.33249 488.9178,233.6967 497.5009,231.47139 M451.0879,174.56839 C451.0879,198.41039 426.9279,213.66939 401.1779,213.66939 C380.5149,213.66939 368.4349,206.35779 368.4349,188.23739 C368.4349,170.75339 380.1969,163.12339 408.4899,158.99139 C436.4649,155.17669 442.1869,153.90509 451.0879,149.77239 L451.0879,174.56839" id="Shape"></path>
            </g>
        </g>
    </g>
</svg>
