
<svg width="11px" height="16px" viewBox="0 0 11 16" version="1.1" xmlns="http://www.w3.org/2000/svg" xmlns:xlink="http://www.w3.org/1999/xlink">
    <desc>Favicon</desc>
    <defs></defs>
    <g id="Page-1" stroke="none" stroke-width="1" fill="none" fill-rule="evenodd">
        <g id="Group">
            <polygon id="Path" fill="#304FFE" points="0.0833333333 7.41666667 3.36111111 0.0555555556 7.80555556 0.0555555556 10.8888889 7.19444444 8.69444444 7.22222222 6.66666667 1.63888889 4.61111111 1.63888889 2.5 7.33333333"></polygon>
            <polygon id="Path" fill="#D50000" transform="translate(5.486111, 12.291667) scale(1, -1) translate(-5.486111, -12.291667) " points="0.0833333333 15.9722222 3.36111111 8.61111111 7.80555556 8.61111111 10.8888889 15.75 8.69444444 15.7777778 6.66666667 10.1944444 4.61111111 10.1944444 2.5 15.8888889"></polygon>
            <path d="M1.82986111,10.0980903 L3.00173611,9.97309028 C3.06423642,10.6033018 3.20616209,11.0941823 3.42751736,11.4457465 C3.64887263,11.7973108 3.96527572,12.07986 4.37673611,12.2934028 C4.7881965,12.5069455 5.25173353,12.6137153 5.76736111,12.6137153 C6.50694814,12.6137153 7.08116115,12.4327275 7.49001736,12.0707465 C7.89887357,11.7087656 8.10329861,11.2387182 8.10329861,10.6605903 C8.10329861,10.3220469 8.0290806,10.026477 7.88064236,9.77387153 C7.73220412,9.5212661 7.50824803,9.31423692 7.20876736,9.15277778 C6.9092867,8.99131864 6.26215775,8.7647584 5.26736111,8.47309028 C4.38194002,8.21267231 3.75173799,7.94965411 3.37673611,7.68402778 C3.00173424,7.41840145 2.71007049,7.08116524 2.50173611,6.67230903 C2.29340174,6.26345282 2.18923611,5.80121786 2.18923611,5.28559028 C2.18923611,4.35850231 2.48871228,3.60069739 3.08767361,3.01215278 C3.68663494,2.42360817 4.49391853,2.12934028 5.50954861,2.12934028 C6.20746877,2.12934028 6.81813974,2.26735973 7.34157986,2.54340278 C7.86501998,2.81944582 8.27126592,3.2152752 8.56032986,3.73090278 C8.84939381,4.24653036 9.00434017,4.85329512 9.02517361,5.55121528 L7.82986111,5.66059028 C7.7673608,4.91579489 7.54470678,4.36371707 7.16189236,4.00434028 C6.77907795,3.64496348 6.24132291,3.46527778 5.54861111,3.46527778 C4.8454826,3.46527778 4.30902963,3.62282829 3.93923611,3.93793403 C3.5694426,4.25303977 3.38454861,4.66058778 3.38454861,5.16059028 C3.38454861,5.62413426 3.51996392,5.98350567 3.79079861,6.23871528 C4.0616333,6.49392489 4.6710022,6.75173481 5.61892361,7.01215278 C6.54601158,7.26736239 7.19704674,7.48871434 7.57204861,7.67621528 C8.14496814,7.9678834 8.57725549,8.35199414 8.86892361,8.82855903 C9.16059174,9.30512391 9.30642361,9.87412864 9.30642361,10.5355903 C9.30642361,11.1918436 9.15277931,11.7894938 8.84548611,12.328559 C8.53819291,12.8676242 8.12022834,13.2777764 7.59157986,13.5590278 C7.06293138,13.8402792 6.426219,13.9809028 5.68142361,13.9809028 C4.51995947,13.9809028 3.59418748,13.6319479 2.90407986,12.9340278 C2.21397224,12.2361076 1.85590291,11.2908046 1.82986111,10.0980903 Z" id="S" fill="#303030"></path>
        </g>
    </g>
</svg>